<?xml version="1.0" encoding="UTF-8"?>
<svg width="51px" height="42px" viewBox="0 0 51 42" version="1.1" xmlns="http://www.w3.org/2000/svg" xmlns:xlink="http://www.w3.org/1999/xlink">
    <!-- Generator: Sketch 56.3 (81716) - https://sketch.com -->
    <title>形状</title>
    <desc>Created with Sketch.</desc>
    <g id="Page-1" stroke="none" stroke-width="1" fill="none" fill-rule="evenodd">
        <g id="openSDS备份-4" transform="translate(-386.000000, -448.000000)" fill="#78ABF6" fill-rule="nonzero">
            <path d="M421.0625,490 L401.9375,490 C393.134521,490 386,482.76863 386,473.846154 L386,467.384615 C386,463.77524 387.207764,460.46875 389.1875,457.780649 L389.1875,452.846154 C389.1875,450.170673 389.735352,448 392.375,448 C394.60376,448 397.47998,449.577524 398.364014,451.672476 C399.515797,451.401091 400.704834,451.230769 401.9375,451.230769 L421.0625,451.230769 C422.295166,451.230769 423.484303,451.401192 424.635986,451.672476 C425.52002,449.577524 428.39624,448 430.625,448 C433.264648,448 433.8125,450.170673 433.8125,452.846154 L433.8125,457.780649 C435.792236,460.46875 437,463.77524 437,467.384615 L437,473.846154 C437,482.76863 429.865479,490 421.0625,490 Z M421.25,468 L401.75,468 C396.367188,468 392,472.255208 392,477.5 C392,482.744792 396.367188,487 401.75,487 L421.25,487 C426.632812,487 431,482.744792 431,477.5 C431,472.255208 426.632812,468 421.25,468 Z M421,482 C418.515625,482 418,479.716814 418,476.902655 L418,475.097345 C418,472.283186 418.515625,470 421,470 C423.484375,470 424,472.283186 424,475.097345 L424,476.902655 C424,479.716814 423.484375,482 421,482 Z M402,482 C399.515625,482 399,479.716814 399,476.902655 L399,475.097345 C399,472.283186 399.515625,470 402,470 C404.484375,470 405,472.283186 405,475.097345 L405,476.902655 C405,479.716814 404.484375,482 402,482 Z" id="形状"></path>
        </g>
    </g>
</svg>