<?xml version="1.0" encoding="UTF-8"?>
<svg width="64px" height="64px" viewBox="0 0 64 64" version="1.1" xmlns="http://www.w3.org/2000/svg" xmlns:xlink="http://www.w3.org/1999/xlink">
    <!-- Generator: Sketch 61.2 (89653) - https://sketch.com -->
    <title>Artboard</title>
    <desc>Created with Sketch.</desc>
    <g id="Artboard" stroke="none" stroke-width="1" fill="none" fill-rule="evenodd">
        <g id="Group" transform="translate(-1.000000, 4.000000)">
            <path d="M21.5116185,12.6020243 L23.0345968,15.1866978 C17.2325151,18.6054832 13.5565433,24.7785922 13.4223859,31.6124843 L13.4185843,32 L10.4185843,32 C10.4185843,24.0806694 14.5452712,16.8762886 21.1551516,12.8164914 L21.5116185,12.6020243 Z" id="Path" fill="#78ABF6" fill-rule="nonzero"></path>
            <path d="M22.782676,48.6622931 C25.8114517,50.50899 29.290365,51.5 32.9185843,51.5 C36.2634698,51.5 39.4820799,50.6578898 42.3398016,49.0775367 L42.7455672,48.8467611 L44.2597683,51.4365864 C40.8461692,53.4324259 36.9585655,54.5 32.9185843,54.5 C28.9027731,54.5 25.038611,53.4450053 21.6429242,51.4747629 L21.2209262,51.2237258 L22.782676,48.6622931 Z" id="Path" fill="#F6C480" fill-rule="nonzero"></path>
            <path d="M44.0087328,12.4188025 C50.8824834,16.319695 55.2655588,23.5539493 55.414656,31.5770186 L55.4185843,32 L52.4185843,32 C52.4185843,25.0286586 48.7304349,18.7036257 42.8566016,15.218606 L42.5280384,15.0279296 L44.0087328,12.4188025 Z" id="Path" fill="#F68989" fill-rule="nonzero"></path>
            <circle id="Oval" fill="#F68989" cx="32.9185843" cy="9" r="9"></circle>
            <circle id="Oval" fill="#78ABF6" transform="translate(13.000000, 43.500000) rotate(-120.000000) translate(-13.000000, -43.500000) " cx="13" cy="43.5" r="9"></circle>
            <circle id="Oval" fill="#F6C480" transform="translate(52.837169, 43.500000) rotate(120.000000) translate(-52.837169, -43.500000) " cx="52.8371686" cy="43.5" r="9"></circle>
        </g>
    </g>
</svg>