<?xml version="1.0" encoding="UTF-8"?>
<svg width="64px" height="64px" viewBox="0 0 64 64" version="1.1" xmlns="http://www.w3.org/2000/svg" xmlns:xlink="http://www.w3.org/1999/xlink">
    <!-- Generator: Sketch 61.2 (89653) - https://sketch.com -->
    <title>Artboard Reverse</title>
    <desc>Created with Sketch.</desc>
    <g id="Artboard-Reverse" stroke="none" stroke-width="1" fill="none" fill-rule="evenodd">
        <path d="M21.782676,52.6622931 C24.8114517,54.50899 28.290365,55.5 31.9185843,55.5 C35.2634698,55.5 38.4820799,54.6578898 41.3398016,53.0775367 L41.7455672,52.8467611 L43.2597683,55.4365864 C39.8461692,57.4324259 35.9585655,58.5 31.9185843,58.5 C27.9027731,58.5 24.038611,57.4450053 20.6429242,55.4747629 L20.2209262,55.2237258 L21.782676,52.6622931 Z M7.5,39.7057714 C11.8046336,37.22049 17.3089473,38.6953664 19.7942286,43 C22.27951,47.3046336 20.8046336,52.8089473 16.5,55.2942286 C12.1953664,57.77951 6.69105274,56.3046336 4.20577137,52 C1.72048999,47.6953664 3.19536639,42.1910527 7.5,39.7057714 Z M44.0429399,43 C46.5282213,38.6953664 52.032535,37.22049 56.3371686,39.7057714 C60.6418022,42.1910527 62.1166786,47.6953664 59.6313972,52 C57.1461158,56.3046336 51.6418022,57.77951 47.3371686,55.2942286 C43.032535,52.8089473 41.5576586,47.3046336 44.0429399,43 Z M20.5116185,16.6020243 L22.0345968,19.1866978 C16.2325151,22.6054832 12.5565433,28.7785922 12.4223859,35.6124843 L12.4185843,36 L9.41858429,36 C9.41858429,28.0806694 13.5452712,20.8762886 20.1551516,16.8164914 L20.5116185,16.6020243 Z M43.0087328,16.4188025 C49.8824834,20.319695 54.2655588,27.5539493 54.414656,35.5770186 L54.4185843,36 L51.4185843,36 C51.4185843,29.0286586 47.7304349,22.7036257 41.8566016,19.218606 L41.5280384,19.0279296 L43.0087328,16.4188025 Z M31.9185843,4 C36.889147,4 40.9185843,8.02943725 40.9185843,13 C40.9185843,17.9705627 36.889147,22 31.9185843,22 C26.9480215,22 22.9185843,17.9705627 22.9185843,13 C22.9185843,8.02943725 26.9480215,4 31.9185843,4 Z" id="Combined-Shape" fill="#FFFFFF" fill-rule="nonzero"></path>
    </g>
</svg>